<svg xmlns="http://www.w3.org/2000/svg"  viewBox="0 0 73 72" fill="none">
  <g>
    <path d="M30.8046 25.9727L36.5797 26.0012C37.9847 26.0078 39.837 26.0171 40.7912 26.6008C41.8374 27.2276 42.6556 28.3631 42.6476 29.9201C42.6389 31.6067 41.7427 32.869 40.2658 33.4599V33.5057C42.2262 33.9154 43.2884 35.3855 43.2784 37.3403C43.267 39.6716 41.582 41.8854 38.4174 41.8695L30.7266 41.8316L30.8052 25.9727H30.8046ZM32.889 32.7986L37.1292 32.8198C39.537 32.8318 40.5238 31.9699 40.5318 30.3039C40.5425 28.1048 38.9835 27.7867 37.1538 27.7774L32.9137 27.7562L32.8883 32.7986H32.889ZM32.853 40.0601L38.1627 40.086C39.9891 40.0953 41.1566 38.9897 41.1653 37.26C41.1753 35.1936 39.505 34.6093 37.7219 34.6007L32.881 34.5768L32.8536 40.0594L32.853 40.0601Z" fill="#F3EDE4"/>
    <path d="M48.7195 33.9927C48.6861 40.6527 43.2371 46.0257 36.5464 45.9925C29.8584 45.9593 24.4627 40.5331 24.496 33.8732C24.5294 27.2133 29.9784 21.8402 36.6664 21.8734C43.3578 21.9093 48.7528 27.3355 48.7195 33.9927ZM36.6784 20.0368C28.9756 19.9989 22.699 26.1874 22.6603 33.8579C22.6223 41.5285 28.8369 47.7787 36.5397 47.8172C44.2453 47.8551 50.5225 41.6666 50.5605 33.9961C50.5985 26.3255 44.384 20.0753 36.6778 20.0368H36.6784Z" fill="#F3EDE4"/>
    <path d="M22.6027 50.6809L22.5938 52.5029L50.4363 52.6384L50.4452 50.8164L22.6027 50.6809Z" fill="#F3EDE4"/>
    <path d="M49.5878 48.8082C49.6225 48.8082 49.6545 48.8055 49.6858 48.8055C49.7145 48.8029 49.7439 48.7969 49.7665 48.7889C49.7925 48.7777 49.8099 48.7604 49.8245 48.7405C49.8392 48.7172 49.8452 48.6887 49.8452 48.6515C49.8452 48.6196 49.8399 48.5911 49.8285 48.5738C49.8172 48.5539 49.7999 48.5393 49.7799 48.5307C49.7599 48.5194 49.7392 48.5134 49.7105 48.5074C49.6845 48.5041 49.6612 48.5041 49.6325 48.5041H49.4331L49.4318 48.8109H49.5878V48.8089V48.8082ZM49.6565 48.3766C49.7719 48.3766 49.8559 48.4005 49.9132 48.447C49.9679 48.4935 49.9966 48.5625 49.9959 48.6575C49.9959 48.7465 49.9692 48.8069 49.9226 48.85C49.8732 48.8899 49.8125 48.9131 49.7372 48.9211L50.0126 49.3487H49.8505L49.5865 48.9291H49.4278L49.4258 49.3454H49.2724L49.2771 48.3773L49.6558 48.3793V48.3766H49.6565ZM48.9704 49.1362C49.0017 49.2225 49.0504 49.3009 49.1137 49.3646C49.1744 49.4284 49.2464 49.4775 49.3298 49.5154C49.4105 49.5506 49.5031 49.5678 49.5985 49.5685C49.6938 49.5691 49.7865 49.5519 49.8679 49.518C49.9519 49.4808 50.0246 49.4324 50.0853 49.3693C50.1459 49.3062 50.1959 49.2318 50.228 49.1429C50.2633 49.0565 50.284 48.9649 50.284 48.864C50.284 48.7631 50.2673 48.6708 50.2306 48.5844C50.1966 48.4981 50.1473 48.4231 50.0899 48.3593C50.0266 48.2956 49.9546 48.2465 49.8739 48.2113C49.7932 48.1761 49.7005 48.1555 49.6052 48.1555C49.5098 48.1555 49.4171 48.1747 49.3358 48.2086C49.2518 48.2458 49.1764 48.2943 49.1184 48.354C49.0544 48.4171 49.0077 48.4915 48.973 48.5778C48.9384 48.6641 48.9204 48.7531 48.9197 48.8567C48.9164 48.9543 48.933 49.0499 48.9704 49.1362ZM48.8343 48.528C48.8784 48.4277 48.939 48.3441 49.015 48.2697C49.0911 48.1953 49.1804 48.1409 49.2818 48.0984C49.3831 48.0559 49.4931 48.036 49.6032 48.0366C49.7185 48.0366 49.8259 48.0579 49.9292 48.1017C50.0272 48.1455 50.1166 48.2006 50.1886 48.2757C50.2633 48.3507 50.3266 48.4377 50.3666 48.5353C50.4127 48.6362 50.432 48.7458 50.4313 48.864C50.4307 48.9822 50.41 49.0911 50.3633 49.192C50.3193 49.2956 50.2586 49.3812 50.1826 49.4556C50.1073 49.5326 50.0199 49.5871 49.9219 49.6296C49.8179 49.6694 49.7105 49.6887 49.5952 49.6887C49.4798 49.6887 49.3758 49.6674 49.2744 49.6269C49.1737 49.5831 49.0844 49.528 49.0097 49.4503C48.935 49.3753 48.8744 49.2883 48.8317 49.1847C48.7857 49.0838 48.769 48.9742 48.7697 48.856C48.7677 48.7378 48.7883 48.6289 48.835 48.528" fill="#F3EDE4"/>
    <path d="M26.1572 13.8762C26.0912 13.7693 26.0105 13.677 25.9131 13.5987C25.8151 13.5177 25.7031 13.4566 25.5791 13.4101C25.4551 13.3663 25.325 13.3424 25.189 13.3417C24.9403 13.3404 24.7289 13.3882 24.5522 13.4825C24.3782 13.5768 24.2361 13.7056 24.1281 13.8663C24.0201 14.027 23.9388 14.2109 23.8881 14.4174C23.8381 14.6246 23.8107 14.837 23.8101 15.0562C23.8094 15.2753 23.8314 15.4705 23.8821 15.6697C23.9301 15.8682 24.0074 16.0475 24.1161 16.2089C24.2221 16.3676 24.3635 16.4977 24.5362 16.594C24.7089 16.6896 24.9196 16.7401 25.1717 16.7407C25.5097 16.7427 25.7765 16.6398 25.9652 16.4366C26.1572 16.2301 26.2739 15.9605 26.3192 15.6239L27.3914 15.6292C27.3608 15.9426 27.2874 16.2248 27.1674 16.4771C27.0474 16.7301 26.8933 16.9452 26.6986 17.1192C26.5039 17.2965 26.2779 17.4306 26.0205 17.5242C25.7631 17.6152 25.4764 17.6624 25.167 17.661C24.7823 17.659 24.4362 17.5913 24.1275 17.4545C23.8187 17.3204 23.5627 17.1351 23.35 16.8981C23.1399 16.6637 22.9799 16.3868 22.8685 16.0694C22.7572 15.752 22.7012 15.4121 22.7032 15.0469C22.7052 14.6817 22.7619 14.3244 22.8792 14.0057C22.9932 13.687 23.1566 13.4055 23.3686 13.1704C23.5807 12.9327 23.8421 12.7468 24.1521 12.6133C24.4589 12.4798 24.8063 12.4121 25.1937 12.4141C25.4711 12.4154 25.7338 12.4573 25.9792 12.5363C26.2245 12.618 26.4466 12.7342 26.6393 12.8875C26.832 13.0409 26.9934 13.2288 27.1194 13.4539C27.2454 13.679 27.3248 13.9386 27.3554 14.2262L26.2832 14.2208C26.2639 14.094 26.2239 13.9785 26.1579 13.8749L26.1572 13.8762Z" fill="#F3EDE4"/>
    <path d="M28.8295 16.6918C28.9789 16.8366 29.1956 16.9123 29.4757 16.9136C29.6777 16.9149 29.8517 16.8665 29.9998 16.7662C30.1445 16.6659 30.2352 16.5604 30.2705 16.4482L31.152 16.4528C31.008 16.8864 30.7899 17.1991 30.4972 17.3851C30.2045 17.571 29.8511 17.6639 29.4377 17.6619C29.1516 17.6606 28.8916 17.6135 28.6635 17.5198C28.4328 17.4269 28.2394 17.2961 28.0787 17.1281C27.9207 16.9601 27.7973 16.7582 27.712 16.5219C27.6266 16.2881 27.5846 16.0292 27.586 15.7496C27.5873 15.4701 27.632 15.2257 27.7227 14.9933C27.8133 14.7609 27.9414 14.5571 28.1074 14.3878C28.2734 14.2184 28.4701 14.0843 28.6989 13.988C28.9276 13.8918 29.1796 13.8433 29.457 13.8453C29.7664 13.8466 30.0378 13.9084 30.2685 14.0279C30.4992 14.15 30.6859 14.3094 30.8326 14.5113C30.9793 14.7131 31.0847 14.9442 31.15 15.2005C31.2154 15.4568 31.2367 15.7277 31.2154 16.0099L28.5848 15.9966C28.5975 16.3107 28.6775 16.5471 28.8302 16.6912L28.8295 16.6918ZM29.9691 14.7895C29.8484 14.6593 29.6664 14.5923 29.4237 14.5909C29.265 14.5903 29.1316 14.6155 29.0243 14.6693C28.9169 14.7237 28.8329 14.7895 28.7689 14.8665C28.7049 14.9468 28.6608 15.0298 28.6348 15.1188C28.6088 15.2078 28.5935 15.2855 28.5875 15.3572L30.2178 15.3652C30.1731 15.1115 30.0898 14.9183 29.9691 14.7882V14.7895Z" fill="#F3EDE4"/>
    <path d="M32.6263 13.9517L32.623 14.625H32.6377C32.6844 14.5128 32.7484 14.4098 32.8297 14.3122C32.9111 14.218 33.0011 14.135 33.1058 14.0692C33.2105 14.0035 33.3205 13.9497 33.4392 13.9125C33.5579 13.8753 33.6792 13.8587 33.8066 13.8594C33.8733 13.8594 33.9453 13.8713 34.026 13.8953L34.0213 14.8222C33.9753 14.8136 33.9173 14.8043 33.8506 14.7983C33.7839 14.7923 33.7206 14.7863 33.6599 14.7857C33.4778 14.785 33.3218 14.8156 33.1938 14.8753C33.0664 14.9351 32.9644 15.0181 32.8864 15.1243C32.8084 15.2306 32.7524 15.3507 32.7197 15.4922C32.687 15.6336 32.669 15.7857 32.6684 15.9497L32.6604 17.5871L31.6602 17.5824L31.6782 13.947L32.6263 13.9517Z" fill="#F3EDE4"/>
    <path d="M36.7092 13.9722L36.7058 14.6401L35.9717 14.6368L35.963 16.4356C35.9624 16.6056 35.9904 16.7178 36.045 16.7729C36.0997 16.828 36.2151 16.8572 36.3831 16.8579C36.4411 16.8579 36.4931 16.8552 36.5451 16.8533C36.5972 16.8479 36.6465 16.842 36.6925 16.834L36.6885 17.6056C36.6045 17.6195 36.5091 17.6275 36.4051 17.6328C36.3011 17.6381 36.1997 17.6401 36.1017 17.6401C35.9457 17.6394 35.7983 17.6268 35.6623 17.6062C35.5236 17.5856 35.4022 17.5445 35.2956 17.4807C35.1889 17.4196 35.1082 17.3333 35.0455 17.2204C34.9855 17.1076 34.9542 16.9608 34.9555 16.7769L34.9662 14.6355L34.3594 14.6322L34.3627 13.9642L34.9695 13.9675L34.9748 12.8799L35.975 12.8845L35.9697 13.9722L36.7098 13.9755V13.9728L36.7092 13.9722Z" fill="#F3EDE4"/>
    <path d="M37.2902 13.4117L37.2942 12.5884L38.2944 12.593L38.2904 13.4164L37.2902 13.4117ZM38.2877 13.9781L38.2697 17.6076L37.2695 17.6029L37.2875 13.9735L38.2877 13.9781Z" fill="#F3EDE4"/>
    <path d="M38.6843 14.6493L38.6876 13.9813L39.2857 13.984L39.287 13.7018C39.2884 13.3797 39.3911 13.1148 39.5944 12.9089C39.7978 12.7024 40.1045 12.6035 40.512 12.6055C40.6013 12.6055 40.6913 12.6095 40.7807 12.6181C40.87 12.6241 40.9567 12.6334 41.0407 12.6367L41.0367 13.3824C40.918 13.3671 40.7967 13.3611 40.67 13.3605C40.534 13.3598 40.4359 13.391 40.3773 13.4541C40.3193 13.5172 40.2899 13.6234 40.2892 13.7728L40.2879 13.9913L40.9787 13.9946L40.9754 14.6626L40.2846 14.6592L40.2699 17.624L39.267 17.6194L39.2817 14.6546L38.6836 14.6519V14.6493H38.6843Z" fill="#F3EDE4"/>
    <path d="M41.6535 13.4332L41.6575 12.6099L42.6577 12.6145L42.6537 13.4379L41.6535 13.4332ZM42.6537 13.9996L42.6357 17.629L41.6328 17.6244L41.6508 13.995L42.6537 13.9996Z" fill="#F3EDE4"/>
    <path d="M44.2214 16.7689C44.3708 16.9137 44.5875 16.9894 44.8675 16.9907C45.0696 16.992 45.2436 16.9436 45.3916 16.8433C45.5363 16.743 45.627 16.6375 45.6624 16.5252L46.5439 16.5299C46.3998 16.9635 46.1818 17.2762 45.8917 17.4621C45.599 17.6481 45.2456 17.741 44.8322 17.739C44.5461 17.7377 44.2861 17.6906 44.058 17.5969C43.8273 17.504 43.634 17.3732 43.4733 17.2052C43.3152 17.0372 43.1919 16.8353 43.1065 16.5989C43.0212 16.3652 42.9792 16.1063 42.9805 15.8267C42.9818 15.5472 43.0292 15.3028 43.1172 15.0704C43.2079 14.8294 43.3359 14.6282 43.5019 14.4595C43.668 14.2909 43.8647 14.1561 44.0934 14.0598C44.3221 13.9635 44.5741 13.9151 44.8515 13.9171C45.1609 13.9184 45.4323 13.9801 45.663 14.0997C45.8937 14.2218 46.0804 14.3812 46.2271 14.583C46.3738 14.7849 46.4792 15.016 46.5445 15.2723C46.6099 15.5286 46.6312 15.7995 46.6126 16.0817L43.982 16.0684C43.992 16.3878 44.072 16.6242 44.2214 16.7689ZM45.3636 14.8666C45.2456 14.7364 45.0609 14.6694 44.8182 14.668C44.6595 14.6674 44.5261 14.6926 44.4188 14.7464C44.3114 14.8008 44.2274 14.8666 44.1634 14.9436C44.0994 15.0239 44.0554 15.1069 44.0294 15.1959C44.0034 15.2849 43.988 15.3626 43.982 15.4343L45.609 15.4423C45.5643 15.1886 45.481 14.9954 45.3636 14.8652V14.8666Z" fill="#F3EDE4"/>
    <path d="M49.6461 17.205C49.5267 17.4003 49.3727 17.543 49.1813 17.6287C48.9899 17.7143 48.7759 17.7562 48.5359 17.7548C48.2645 17.7535 48.0244 17.7004 47.817 17.5928C47.6097 17.4852 47.4396 17.3432 47.3076 17.1612C47.1756 16.9793 47.0756 16.7714 47.0075 16.5377C46.9395 16.304 46.9089 16.0596 46.9102 15.806C46.9115 15.5616 46.9475 15.3286 47.0149 15.1015C47.0822 14.8744 47.1876 14.6765 47.3216 14.5012C47.4556 14.3293 47.6263 14.1892 47.8264 14.0862C48.0291 13.9807 48.2638 13.9302 48.5325 13.9315C48.7492 13.9328 48.9546 13.9793 49.1473 14.073C49.3433 14.1659 49.496 14.2994 49.6081 14.478H49.6227L49.6321 12.6533L50.6323 12.658L50.6076 17.6718L49.6567 17.6672L49.6587 17.2037H49.6474L49.6461 17.205ZM49.6114 15.4089C49.5834 15.2708 49.5374 15.1493 49.4687 15.0424C49.4 14.9355 49.3133 14.8518 49.204 14.7848C49.0973 14.7184 48.9586 14.6858 48.7972 14.6852C48.6359 14.6845 48.4938 14.715 48.3805 14.7808C48.2671 14.8465 48.1771 14.9322 48.1078 15.0384C48.0411 15.1446 47.9911 15.2682 47.9584 15.4063C47.9257 15.5444 47.9111 15.6878 47.9097 15.8379C47.9091 15.9786 47.9257 16.1201 47.9571 16.2582C47.9884 16.3996 48.0424 16.5231 48.1144 16.636C48.1865 16.7456 48.2785 16.8352 48.3878 16.9049C48.4972 16.9746 48.6299 17.0072 48.7859 17.0078C48.9506 17.0085 49.0866 16.978 49.2 16.9122C49.31 16.8465 49.4 16.7608 49.4674 16.6486C49.5347 16.5397 49.5814 16.4129 49.6107 16.2754C49.6401 16.1347 49.6554 15.9906 49.6561 15.8412C49.6541 15.6918 49.6401 15.5477 49.6121 15.4089H49.6114Z" fill="#F3EDE4"/>
    <path d="M25.0192 56.0926C24.9719 55.7414 24.6351 55.4718 24.2477 55.4698C23.5482 55.4665 23.2822 56.0581 23.2795 56.677C23.2769 57.2639 23.5369 57.8582 24.2364 57.8615C24.7131 57.8642 24.9839 57.5402 25.0439 57.074L25.8014 57.078C25.716 57.9585 25.1032 58.5196 24.2337 58.5149C23.1355 58.5096 22.4947 57.6889 22.5 56.673C22.5054 55.6252 23.1542 54.8111 24.2524 54.8164C25.0325 54.8204 25.684 55.2786 25.7753 56.096L25.0212 56.092L25.0192 56.0926Z" fill="#F3EDE4"/>
    <path d="M27.4313 55.8223C28.2408 55.8263 28.7582 56.3615 28.7542 57.1788C28.7502 57.9902 28.2274 58.5201 27.4179 58.5161C26.6144 58.5122 26.0937 57.9743 26.0977 57.1656C26.1017 56.3568 26.6278 55.8183 27.4313 55.8223ZM27.4206 57.9896C27.9034 57.9922 28.0467 57.5812 28.0487 57.1782C28.0507 56.7665 27.908 56.3575 27.4286 56.3548C26.9492 56.3522 26.8052 56.7632 26.8032 57.1722C26.8012 57.5752 26.9438 57.9876 27.4206 57.9896Z" fill="#F3EDE4"/>
    <path d="M29.2008 55.8962L29.8716 55.8996L29.869 56.3743H29.8803C30.009 56.0529 30.3597 55.8325 30.7038 55.8345C30.7531 55.8345 30.8138 55.8438 30.8572 55.8584L30.8538 56.5118C30.7871 56.4972 30.6831 56.4879 30.5998 56.4872C30.0823 56.4845 29.9016 56.855 29.899 57.3039L29.893 58.4553L29.1875 58.452L29.2002 55.8962H29.2008Z" fill="#F3EDE4"/>
    <path d="M31.1248 55.9104L31.7956 55.9137L31.7943 56.2391H31.8029C31.9716 55.9695 32.2497 55.8473 32.5678 55.8486C33.3739 55.8526 33.732 56.502 33.7287 57.2271C33.7253 57.909 33.3466 58.5465 32.5951 58.5425C32.289 58.5412 31.9943 58.407 31.8283 58.1527H31.8169L31.8109 59.3698L31.1055 59.3665L31.1228 55.9097H31.1255L31.1248 55.9104ZM33.0232 57.2065C33.0252 56.8008 32.8625 56.3798 32.4117 56.3772C31.949 56.3752 31.7996 56.7855 31.7976 57.2005C31.7956 57.6155 31.9523 58.0133 32.4091 58.0153C32.8658 58.0173 33.0212 57.6209 33.0232 57.2065Z" fill="#F3EDE4"/>
    <path d="M35.2873 55.8604C36.0968 55.8644 36.6169 56.3995 36.6129 57.2169C36.6089 58.0283 36.0828 58.5582 35.274 58.5542C34.4652 58.5502 33.9531 58.0124 33.9571 57.2036C33.9611 56.3889 34.4838 55.8564 35.2873 55.8604ZM35.2766 58.0277C35.7594 58.0303 35.9061 57.6193 35.9081 57.2163C35.9101 56.8132 35.7674 56.3956 35.2853 56.3929C34.8032 56.3902 34.6619 56.8013 34.6599 57.2103C34.6605 57.6133 34.8032 58.0257 35.2773 58.0277H35.2766Z" fill="#F3EDE4"/>
    <path d="M37.0551 55.9368L37.7259 55.9401L37.7232 56.4148H37.7345C37.8632 56.0935 38.214 55.873 38.5554 55.875C38.6047 55.875 38.6654 55.8843 38.7087 55.8989L38.7054 56.5523C38.642 56.5377 38.538 56.5284 38.4513 56.5277C37.9339 56.5251 37.7532 56.8956 37.7505 57.3444L37.7445 58.4958L37.0391 58.4925L37.0517 55.9368H37.0544H37.0551Z" fill="#F3EDE4"/>
    <path d="M38.9115 56.7334C38.9555 56.0747 39.5456 55.8815 40.1237 55.8848C40.6352 55.8875 41.2506 56.0023 41.2473 56.6159L41.2406 57.9459C41.2393 58.1789 41.2613 58.4093 41.3273 58.5162L40.6105 58.5129C40.5878 58.4319 40.5651 58.3489 40.5625 58.2652C40.3384 58.497 40.0117 58.5793 39.697 58.5773C39.2115 58.5747 38.8255 58.331 38.8281 57.8077C38.8308 57.2294 39.2682 57.0933 39.705 57.0349C40.1391 56.9738 40.5405 56.9904 40.5418 56.7022C40.5431 56.4001 40.3324 56.3556 40.0871 56.3543C39.8183 56.3529 39.6443 56.4612 39.617 56.7374L38.9115 56.7341V56.7334ZM40.5365 57.2626C40.4145 57.3655 40.1691 57.3702 39.949 57.4093C39.729 57.4512 39.5323 57.5255 39.5309 57.7845C39.5296 58.0435 39.7316 58.1105 39.963 58.1119C40.5125 58.1145 40.5371 57.6803 40.5385 57.5275L40.5398 57.2626H40.5371H40.5365Z" fill="#F3EDE4"/>
    <path d="M42.6707 55.9674L43.1881 55.9701L43.1855 56.4395L42.668 56.4369L42.662 57.7031C42.6607 57.9422 42.7214 57.9999 42.9581 58.0013C43.0335 58.0013 43.1028 57.9959 43.1781 57.982L43.1755 58.5318C43.0568 58.551 42.9008 58.5564 42.7621 58.5557C42.3313 58.5537 41.9532 58.4508 41.9559 57.9442L41.9632 56.4362L41.5352 56.4342L41.5378 55.9648L41.9659 55.9668L41.9699 55.2012L42.6754 55.2045L42.6714 55.9674H42.6707Z" fill="#F3EDE4"/>
    <path d="M44.435 55.5797L43.7295 55.5764L43.7322 54.998L44.4377 55.0014L44.435 55.5797ZM43.7275 55.9708L44.433 55.9741L44.4203 58.5299L43.7148 58.5265L43.7275 55.9708Z" fill="#F3EDE4"/>
    <path d="M46.2248 55.9155C47.0343 55.9195 47.5544 56.4547 47.5504 57.2721C47.5464 58.0835 47.0203 58.6134 46.2115 58.6094C45.4027 58.6054 44.8906 58.0676 44.8946 57.2588C44.8986 56.4501 45.4213 55.9116 46.2248 55.9155ZM46.2141 58.0828C46.6969 58.0855 46.8436 57.6745 46.8456 57.2714C46.8476 56.8684 46.7049 56.4507 46.2228 56.4481C45.7407 56.4454 45.5994 56.8564 45.5974 57.2655C45.5954 57.6745 45.7381 58.0809 46.2148 58.0828H46.2141Z" fill="#F3EDE4"/>
    <path d="M48.0146 55.9926L48.6854 55.9959L48.6834 56.3525H48.698C48.8787 56.0656 49.1855 55.9289 49.4862 55.9302C50.235 55.9342 50.4237 56.3551 50.4204 56.9879L50.4124 58.5596L49.7069 58.5563L49.7142 57.1114C49.7162 56.6911 49.5929 56.4833 49.2662 56.482C48.8814 56.48 48.7187 56.6925 48.716 57.213L48.7094 58.5543L48.0039 58.551L48.0166 55.9926H48.0139H48.0146Z" fill="#F3EDE4"/>
  </g>
</svg>