<svg xmlns="http://www.w3.org/2000/svg" viewBox="0 0 56 45" fill="none">
  <g clip-path="url(#clip0_9177_82212)">
    <path d="M53.1744 41.7307C52.8104 41.7328 52.4451 41.7177 52.0825 41.7431C51.8054 41.7623 51.6138 41.66 51.4305 41.463C50.9311 40.927 50.4186 40.4026 49.9076 39.8783C49.8063 39.7739 49.6859 39.6881 49.5128 39.5426V41.7005H48.3573C48.3484 41.5838 48.3299 41.4521 48.3299 41.3196C48.3279 39.1837 48.3278 37.0484 48.3285 34.9125C48.3285 34.5236 48.5192 34.3289 48.9005 34.3285C48.9689 34.3285 49.038 34.3346 49.1051 34.3271C49.3814 34.2969 49.4868 34.4074 49.4834 34.6957C49.4711 35.8261 49.4779 36.9572 49.4793 38.0876C49.4793 38.2187 49.4923 38.3498 49.4991 38.4809C49.5292 38.498 49.56 38.5159 49.5901 38.533C49.9897 38.1157 50.4248 37.7259 50.7812 37.2743C51.2793 36.6428 51.9176 36.7204 52.6462 36.7972C52.5689 36.9146 52.5251 37.01 52.456 37.0807C51.8848 37.6675 51.3053 38.2448 50.7415 38.8384C50.68 38.9036 50.6512 39.1041 50.6984 39.1535C51.4811 39.9723 52.2788 40.7767 53.0752 41.5825C53.0937 41.601 53.1409 41.59 53.1744 41.5934V41.7307Z" fill="#F3EDE4"/>
    <path d="M28.3935 30.8191C27.8592 30.8191 27.3201 30.8631 26.7912 30.8075C26.2001 30.7457 25.6104 30.6242 25.0357 30.4719C24.4186 30.3078 23.796 30.1273 23.2179 29.8631C22.36 29.4705 21.5048 29.0504 20.7084 28.5466C19.115 27.5391 17.8261 26.2007 16.7827 24.6269C16.1649 23.6949 15.6587 22.7031 15.2879 21.6489C14.6913 19.9529 14.4327 18.2007 14.4826 16.4017C14.5031 15.6612 14.8411 15.7085 15.3515 15.8245C15.4165 15.8396 15.4794 15.8746 15.5444 15.8787C16.4023 15.9371 17.2616 15.9844 18.1196 16.0503C18.617 16.0881 19.113 16.1457 19.6062 16.2171C19.6733 16.2267 19.7629 16.3667 19.7698 16.4525C19.8231 17.1334 19.8149 17.8211 19.9114 18.4951C20.0345 19.3558 20.3239 20.1746 20.7324 20.9474C21.3207 22.06 22.1075 23.0092 23.0975 23.7779C23.822 24.34 24.6054 24.8006 25.49 25.0923C26.4991 25.4251 27.5246 25.6667 28.5823 25.6599C29.1338 25.6564 29.6893 25.4986 30.2325 25.3661C30.7484 25.2405 31.2505 25.0566 31.7582 24.898C32.547 24.6509 33.2004 24.1691 33.8353 23.6647C34.6282 23.0346 35.2877 22.281 35.7954 21.4025C36.3338 20.4718 36.7785 19.504 36.8647 18.4093C36.9146 17.7765 36.9755 17.1437 37.0008 16.5095C37.0104 16.2645 37.0966 16.2061 37.321 16.1924C38.0339 16.1492 38.7461 16.084 39.4583 16.0263C40.031 15.9796 40.6043 15.9371 41.1762 15.8808C41.3883 15.8602 41.5956 15.7861 41.807 15.771C42.1621 15.7463 42.275 15.863 42.2941 16.2102C42.3544 17.3208 42.2866 18.4285 42.08 19.5164C41.9514 20.1938 41.7277 20.8575 41.4957 21.5102C41.257 22.1828 41.0004 22.8555 40.6761 23.489C39.9112 24.9818 38.8816 26.2886 37.6221 27.3867C36.6259 28.255 35.5573 29.0394 34.3135 29.5391C33.7183 29.7786 33.1313 30.0408 32.5285 30.2598C32.2029 30.3778 31.8533 30.432 31.5133 30.5069C31.1972 30.5762 30.8804 30.6579 30.5602 30.6949C29.8412 30.7787 29.1194 30.8377 28.3983 30.907C28.3969 30.8782 28.3956 30.85 28.3935 30.8212V30.8191Z" fill="#F3EDE4"/>
    <path d="M38.1452 41.6934C38.0823 41.7167 38.0727 41.7236 38.0617 41.7243C37.3233 41.786 36.9541 41.452 36.9541 40.7222C36.9541 39.6261 36.9562 38.5293 36.9507 37.4332C36.9507 37.3076 36.9042 37.1827 36.8795 37.0571C36.8467 37.0592 36.8138 37.0605 36.781 37.0626C36.3213 37.6865 35.8478 38.3001 35.4059 38.937C35.0474 39.4531 34.2476 39.4744 33.913 38.9864C33.4553 38.3186 32.9484 37.6851 32.4065 36.9624C32.3805 37.1559 32.3497 37.2781 32.3497 37.4003C32.3463 38.7249 32.3402 40.0496 32.3532 41.3742C32.3559 41.657 32.2724 41.7641 31.9865 41.7421C31.7066 41.7208 31.4241 41.7373 31.1258 41.7373C31.1183 41.5925 31.1094 41.493 31.1094 41.3928C31.1094 39.3145 31.1094 37.2356 31.1094 35.1573C31.1094 34.7139 31.1361 34.7304 31.5746 34.681C32.0631 34.6261 32.3231 34.8416 32.5844 35.2273C33.1783 36.1017 33.8303 36.9363 34.4549 37.7894C34.5801 37.9603 34.6766 37.9329 34.7908 37.7778C35.1534 37.2857 35.5249 36.8004 35.8875 36.309C36.2255 35.8512 36.5546 35.3865 36.8925 34.9294C37.0465 34.7215 37.8134 34.5657 38.0193 34.7242C38.1035 34.7887 38.1391 34.9596 38.1397 35.0825C38.1473 36.5897 38.1452 38.0976 38.1452 39.6048C38.1452 40.2994 38.1452 40.994 38.1452 41.6927V41.6934Z" fill="#F3EDE4"/>
    <path d="M4.85157 41.7191H3.60025C3.59341 41.6038 3.58178 41.505 3.58178 41.4055C3.58041 39.3066 3.58725 37.2084 3.57425 35.1096C3.5722 34.7808 3.6673 34.671 3.99843 34.6834C4.61143 34.706 5.22785 34.6545 5.83949 34.6944C6.86845 34.7616 7.75854 35.1597 8.15398 36.1714C8.58842 37.2853 8.20666 38.623 6.89171 39.1549C6.54827 39.2943 6.1453 39.3224 5.76833 39.3334C4.85293 39.3588 4.85293 39.343 4.85293 40.2771C4.85293 40.7425 4.85293 41.2085 4.85293 41.7177L4.85157 41.7191ZM4.85499 38.1913C5.17107 38.1913 5.4201 38.192 5.66845 38.1913C5.80459 38.1913 5.94142 38.1968 6.0762 38.1817C6.616 38.1227 6.94781 37.8076 7.05796 37.3581C7.1729 36.8886 7.03265 36.3018 6.5298 36.0609C6.03584 35.8248 5.52409 35.8536 5.00961 35.8598C4.95693 35.8598 4.86251 35.9778 4.86114 36.0423C4.8502 36.7438 4.8543 37.4459 4.8543 38.1906L4.85499 38.1913Z" fill="#F3EDE4"/>
    <path d="M14.3571 37.2015C14.4721 37.0423 14.5521 36.8096 14.6746 36.7849C14.9448 36.7293 15.2479 36.7348 15.5127 36.8062C15.6119 36.8329 15.696 37.113 15.6974 37.2784C15.7118 38.6703 15.7097 40.0622 15.6967 41.4541C15.696 41.5481 15.5708 41.7135 15.4922 41.7211C15.1679 41.752 14.8388 41.7341 14.5042 41.7341C14.47 41.5818 14.4433 41.4644 14.431 41.4109C13.9884 41.5708 13.5656 41.8213 13.1222 41.8652C12.096 41.9654 11.1232 41.369 10.7544 40.3196C10.4109 39.3422 10.4753 38.3951 11.1533 37.557C11.8874 36.6497 13.2386 36.3772 14.2853 37.1644C14.3181 37.1891 14.3578 37.2036 14.3565 37.2029L14.3571 37.2015ZM13.1469 40.7904C13.9993 40.7911 14.5993 40.1768 14.5774 39.2749C14.5562 38.3889 14.0294 37.7718 13.1599 37.7451C12.4005 37.7217 11.7074 38.3889 11.732 39.2695C11.7587 40.2077 12.2718 40.7897 13.1462 40.7904H13.1469Z" fill="#F3EDE4"/>
    <path d="M42.7014 37.2221C42.7897 37.0602 42.8458 36.8213 42.945 36.8014C43.2282 36.7458 43.5306 36.7637 43.8214 36.7904C43.8747 36.7952 43.9507 36.9764 43.9514 37.0766C43.9609 38.5488 43.9623 40.0217 43.9514 41.494C43.9514 41.5749 43.8241 41.7177 43.7461 41.7246C43.4423 41.7513 43.1352 41.7356 42.8225 41.7356C42.7992 41.5962 42.7808 41.4878 42.7534 41.3258C42.1267 41.7266 41.5089 42.0149 40.7591 41.8248C40.0277 41.6395 39.4784 41.218 39.1561 40.5674C38.6738 39.5935 38.7306 38.1947 39.6911 37.321C40.4389 36.6408 41.6081 36.3999 42.7014 37.2228V37.2221ZM41.4699 40.7905C42.3012 40.7905 42.9203 40.1473 42.9169 39.2839C42.9142 38.4658 42.2724 37.7499 41.4576 37.7396C40.7488 37.7307 40.0318 38.4136 40.0298 39.2825C40.0277 40.0108 40.6154 40.8968 41.4692 40.7905H41.4699Z" fill="#F3EDE4"/>
    <path d="M22.6875 39.6524C22.7463 40.1301 22.9693 40.4232 23.3046 40.6387C23.7486 40.9242 24.7139 40.9832 25.0806 40.4753C25.4152 40.0121 25.8879 40.15 26.3176 40.1775C26.5427 40.1919 26.4633 40.4053 26.3846 40.5529C26.0364 41.2001 25.5185 41.5756 24.7919 41.7718C23.9703 41.9942 23.2478 41.8563 22.5739 41.4149C21.6113 40.7849 21.2343 39.2914 21.7413 38.1912C22.0649 37.4884 22.5541 37.0086 23.2471 36.8137C24.5997 36.4334 26.1425 36.966 26.4736 38.5707C26.5098 38.7478 26.5728 38.9221 26.5878 39.1013C26.6227 39.5096 26.5297 39.6051 26.1165 39.6057C25.1053 39.6071 24.0941 39.6023 23.0829 39.605C22.9536 39.605 22.8243 39.6359 22.6875 39.6531V39.6524ZM25.318 38.6929C24.8822 37.7718 24.3137 37.489 23.5475 37.7505C23.0898 37.907 22.7388 38.371 22.812 38.6929H25.3174H25.318Z" fill="#F3EDE4"/>
    <path d="M20.997 41.7369C20.7145 41.7369 20.4545 41.739 20.1952 41.7356C20.1069 41.7342 20.0194 41.7205 19.8962 41.7095C19.8962 40.8515 19.9037 40.0094 19.8914 39.1679C19.888 38.9229 19.8627 38.6655 19.7833 38.4363C19.6007 37.9092 19.3304 37.7211 18.8419 37.7458C18.3842 37.7692 17.9313 38.0499 17.8116 38.531C17.7247 38.8797 17.6755 39.2441 17.6638 39.6031C17.6412 40.297 17.657 40.9916 17.657 41.7108H16.5569C16.5493 41.6017 16.535 41.4926 16.5343 41.3835C16.5329 39.9902 16.5411 38.5976 16.5274 37.2043C16.524 36.8748 16.6082 36.6991 16.966 36.7554C17.0214 36.7643 17.0802 36.7623 17.1363 36.7554C17.4791 36.7149 17.7336 36.7808 17.6556 37.2757C17.841 37.1528 17.9737 37.0629 18.1085 36.9757C18.9015 36.4596 20.2964 36.6477 20.789 37.6621C20.8759 37.8412 20.9847 38.0368 20.9874 38.2263C21.0059 39.3773 20.9963 40.5296 20.9963 41.7356L20.997 41.7369Z" fill="#F3EDE4"/>
    <path d="M28.7212 37.8585C28.7212 38.6985 28.6938 39.4851 28.7363 40.2675C28.7506 40.5421 28.9613 40.7768 29.3027 40.7761C29.5634 40.7761 29.8241 40.7761 30.134 40.7761C30.134 41.0397 30.1422 41.2868 30.1285 41.5325C30.1251 41.5963 30.0649 41.6951 30.0102 41.7123C29.1782 41.9683 28.0288 41.8448 27.6211 40.7679C27.567 40.6251 27.567 40.4563 27.5657 40.2991C27.5595 39.6025 27.5506 38.9058 27.5677 38.2099C27.5746 37.9422 27.4945 37.8255 27.225 37.8578C27.1689 37.8646 27.1114 37.8591 27.0546 37.8585C26.5415 37.855 26.2644 37.4068 26.5258 36.9539C26.5894 36.8434 26.8022 36.7706 26.9492 36.7665C27.6806 36.7445 27.5465 36.8015 27.5623 36.1323C27.58 35.3924 27.396 35.4405 28.2806 35.4274C28.5933 35.4226 28.7431 35.5173 28.7109 35.8584C28.6843 36.1385 28.7055 36.4226 28.7055 36.7582C29.0701 36.7582 29.3965 36.7685 29.7221 36.7555C30.0293 36.7431 30.1463 36.8674 30.1415 37.1804C30.1319 37.8379 30.1251 37.8585 29.4772 37.8585C29.2391 37.8585 29.0017 37.8585 28.7212 37.8585Z" fill="#F3EDE4"/>
    <path d="M32.3924 9.31211C32.0722 9.17416 31.7849 9.06228 31.5078 8.92776C30.9571 8.66008 30.9824 8.66283 31.1952 8.04168C31.4018 7.43701 31.5448 6.81038 31.7322 6.19815C31.9525 5.47886 32.1824 4.763 32.4239 4.05057C32.4944 3.84192 32.6319 3.71152 32.8939 3.82545C33.444 4.06361 34.007 4.27364 34.5564 4.51386C34.7603 4.60308 34.8137 4.763 34.6912 4.98744C34.137 6.00255 33.5911 7.02177 33.052 8.04511C32.8604 8.40888 32.6989 8.78843 32.5183 9.15837C32.4882 9.21945 32.4307 9.26681 32.3931 9.31142L32.3924 9.31211Z" fill="#F3EDE4"/>
    <path d="M15.1999 12.5894C15.3415 12.2119 15.4784 11.8331 15.6261 11.4583C15.6993 11.2723 15.7896 11.0925 15.8786 10.9134C15.9887 10.693 16.0989 10.5571 16.3931 10.7205C17.2879 11.2174 18.1992 11.6848 19.1085 12.1556C19.5628 12.3911 20.0239 12.6148 20.4877 12.8303C20.706 12.9319 20.7327 13.0438 20.6211 13.2572C20.4672 13.5524 20.355 13.8688 20.2264 14.1769C20.1552 14.3471 20.1149 14.4261 19.8624 14.3369C19.0818 14.0603 18.2711 13.8681 17.4795 13.621C16.9356 13.4515 16.4033 13.2421 15.8642 13.0568C15.7698 13.0246 15.6644 13.0232 15.5652 13.0033C15.3504 12.96 15.2115 12.853 15.1992 12.5901L15.1999 12.5894Z" fill="#F3EDE4"/>
    <path d="M36.7198 14.4495C36.6049 14.1962 36.4906 13.9484 36.3811 13.6986C36.3586 13.6478 36.364 13.584 36.3408 13.5339C36.0692 12.9505 36.074 12.9621 36.6746 12.6567C37.5298 12.2223 38.3761 11.7706 39.2265 11.3266C39.598 11.1323 39.9627 10.9251 40.3431 10.75C40.6783 10.5963 40.848 10.6649 40.9834 10.9951C41.199 11.5208 41.4131 12.0486 41.5958 12.586C41.6909 12.8647 41.411 12.9326 41.2421 12.9889C40.2418 13.3218 39.2341 13.6348 38.227 13.9471C37.8117 14.0754 37.3903 14.1832 36.9736 14.3067C36.9032 14.3273 36.8423 14.3788 36.7191 14.4495H36.7198Z" fill="#F3EDE4"/>
    <path d="M35.0895 11.4181C35.0197 11.366 34.9671 11.3344 34.924 11.2925C34.6537 11.0338 34.3937 10.7641 34.1146 10.5163C33.9545 10.3742 33.9737 10.274 34.1009 10.1237C35.0861 8.95896 36.0658 7.78943 37.0435 6.61783C37.2316 6.39271 37.4245 6.36869 37.6318 6.57459C38.041 6.98159 38.4419 7.39546 38.851 7.80247C39.0528 8.00357 38.9707 8.16623 38.7929 8.31585C38.0184 8.96651 37.2419 9.61442 36.466 10.2637C36.0781 10.5883 35.6902 10.9144 35.3023 11.2397C35.2366 11.2946 35.1709 11.3502 35.0895 11.4175V11.4181Z" fill="#F3EDE4"/>
    <path d="M29.1835 8.3468C28.6834 8.3468 28.2195 8.35572 27.757 8.33719C27.692 8.33444 27.5846 8.20267 27.5778 8.12374C27.5114 7.34336 27.4697 6.56092 27.4067 5.78055C27.3493 5.06743 27.2713 4.35638 27.2104 3.64395C27.1727 3.20194 27.2733 3.08595 27.7098 3.07565C28.1867 3.06467 28.6649 3.0633 29.1417 3.07565C29.5249 3.08526 29.6316 3.2342 29.5981 3.611C29.544 4.22391 29.5112 4.83888 29.4564 5.45179C29.3723 6.39895 29.2779 7.34542 29.1828 8.34749L29.1835 8.3468Z" fill="#F3EDE4"/>
    <path d="M24.0867 3.79248C24.153 3.85082 24.3042 3.92083 24.3466 4.03202C24.4821 4.38823 24.5745 4.76023 24.6887 5.12468C24.8187 5.54129 24.9583 5.95516 25.0869 6.37246C25.2326 6.84329 25.3694 7.31756 25.5131 7.78908C25.5815 8.01283 25.6315 8.24619 25.7348 8.45278C25.8374 8.65731 25.7662 8.75065 25.5925 8.82066C25.2709 8.95038 24.9234 9.0348 24.6319 9.21325C24.3829 9.36562 24.3158 9.24414 24.2262 9.07324C23.9313 8.51043 23.6385 7.94625 23.3457 7.38276C22.927 6.5763 22.5001 5.77328 22.1006 4.95653C22.0513 4.85632 22.1074 4.59619 22.1854 4.55844C22.7375 4.29489 23.3081 4.06908 23.8732 3.83366C23.9142 3.8165 23.9621 3.81582 24.0853 3.79248H24.0867Z" fill="#F3EDE4"/>
    <path d="M22.822 10.3176C22.7591 10.413 22.7167 10.505 22.6503 10.5736C22.4348 10.7953 22.2036 11.0012 21.9928 11.2277C21.8314 11.4007 21.6966 11.4322 21.5044 11.2634C21.0296 10.8475 20.5404 10.448 20.0567 10.0424C19.3794 9.4741 18.7021 8.9058 18.0227 8.33957C17.8236 8.17347 17.7251 8.02453 17.9652 7.79461C18.373 7.40339 18.7506 6.98128 19.1516 6.58252C19.3684 6.367 19.5668 6.38965 19.7687 6.64292C20.2544 7.25308 20.7559 7.85089 21.2587 8.44732C21.6932 8.96208 22.1399 9.46723 22.5778 9.97925C22.6619 10.0781 22.731 10.1906 22.8227 10.3183L22.822 10.3176Z" fill="#F3EDE4"/>
    <path d="M8.72266 41.7372C8.72266 40.2396 8.72266 38.8155 8.72266 37.3906C8.72266 36.5238 8.72402 35.6569 8.72539 34.79C8.72539 34.381 8.77397 34.324 9.1653 34.3302C9.91582 34.3419 9.91787 34.1758 9.91719 35.0859C9.91582 37.1627 9.91035 39.2403 9.92335 41.3172C9.9254 41.6398 9.84398 41.7784 9.50533 41.7427C9.2604 41.7167 9.01068 41.7379 8.72266 41.7379V41.7372Z" fill="#F3EDE4"/>
    <path d="M45.9838 41.718H44.8461C44.8461 41.486 44.8461 41.2719 44.8461 41.0577C44.8461 39.7557 44.855 38.4537 44.8399 37.1524C44.8365 36.8353 44.9371 36.7077 45.2484 36.7571C45.2819 36.7626 45.3168 36.7578 45.351 36.7578C45.7213 36.7578 45.9387 36.9351 46.003 37.2897C46.0085 37.3185 46.0345 37.3432 46.0591 37.3823C46.3984 36.9369 46.8247 36.6919 47.3836 36.7495C47.4712 36.7585 47.619 36.823 47.6244 36.8745C47.6586 37.1751 47.671 37.4798 47.6552 37.7818C47.6532 37.823 47.4466 37.8916 47.3405 37.882C46.8897 37.8415 46.4935 37.9404 46.2664 38.3549C46.1323 38.5999 46.0146 38.8868 46.0009 39.16C45.9633 39.8889 45.9859 40.6212 45.9845 41.3522C45.9845 41.4641 45.9845 41.5752 45.9845 41.718H45.9838Z" fill="#F3EDE4"/>
  </g>
  <defs>
    <clipPath id="clip0_9177_82212">
      <rect width="55.0751" height="44.3085" fill="white" transform="translate(0.835938 0.321289)"/>
    </clipPath>
  </defs>
</svg>