<svg xmlns="http://www.w3.org/2000/svg" viewBox="0 0 73 72" fill="none">
  <g>
    <path fill-rule="evenodd" clip-rule="evenodd" d="M14.9792 40.0927C15.1205 39.7551 15.1205 39.3831 14.9792 39.0455L14.9441 38.9639L11.8242 40.2323C11.1181 40.5231 10.7765 41.3258 11.0707 42.0243L11.1059 42.1059L14.2257 40.8375C14.5673 40.6979 14.838 40.4419 14.9792 40.0927ZM25.233 36.2648L25.2682 36.3464L28.388 35.078C28.7296 34.9384 29.0004 34.6708 29.1416 34.3332C29.2828 33.9956 29.2828 33.6237 29.1416 33.286L29.1064 33.2044L25.9866 34.4728C25.2804 34.7636 24.9388 35.5664 25.233 36.2648ZM17.475 42.2223L17.3924 42.1875L16.0974 45.2711C15.9561 45.6087 15.9561 45.9806 16.0974 46.3183C16.2386 46.6559 16.5093 46.9235 16.8509 47.0631L16.9335 47.0979L18.2286 44.0143C18.3698 43.6767 18.3698 43.3047 18.2286 42.9671C18.0873 42.6295 17.8166 42.3619 17.475 42.2223ZM22.7373 33.0885L22.8199 33.1233L24.1149 30.0397C24.2561 29.7021 24.2561 29.3301 24.1149 28.9925C23.9737 28.6549 23.7029 28.3873 23.3613 28.2477L23.2787 28.2129L21.9837 31.2965C21.7012 31.9945 22.0306 32.7972 22.7373 33.0885ZM14.214 35.9045C14.3904 35.9045 14.5673 35.8697 14.7437 35.7997C15.0853 35.6601 15.356 35.3925 15.4973 35.0548L15.5324 34.9732L12.4244 33.6932C12.0828 33.5536 11.7065 33.5536 11.3649 33.6932C11.0233 33.8328 10.7525 34.1004 10.6113 34.438L10.5761 34.5197L13.6842 35.7997C13.8489 35.8697 14.0258 35.9045 14.214 35.9045ZM24.7267 40.256L24.6916 40.3376L27.7996 41.6176C27.9761 41.6876 28.153 41.7224 28.3294 41.7224C28.8709 41.7224 29.3889 41.4084 29.6127 40.8728L29.6479 40.7911L26.5398 39.5111C25.8336 39.232 25.0214 39.5575 24.7267 40.256ZM16.7571 28.7249C16.4155 28.5853 16.0392 28.5853 15.6976 28.7249L15.615 28.7597L16.8983 31.8433C17.0396 32.1809 17.3103 32.4485 17.6519 32.5881C17.8283 32.6581 18.0052 32.6929 18.1817 32.6929C18.3581 32.6929 18.535 32.6581 18.7114 32.5881L18.794 32.5533L17.499 29.4697C17.3577 29.1321 17.0987 28.8645 16.7571 28.7249ZM22.5726 42.7338C22.231 42.5942 21.8547 42.5942 21.5131 42.7338L21.4305 42.7686L22.7138 45.8522C22.855 46.1898 23.1258 46.4574 23.4674 46.597C23.6438 46.667 23.8207 46.7018 23.9971 46.7018C24.1735 46.7018 24.3504 46.667 24.5269 46.597L24.6095 46.5622L23.3261 43.4786C23.1849 43.141 22.9142 42.8734 22.5726 42.7338ZM14.838 37.0091V36.9275H11.4597C10.6944 36.9275 10.0703 37.5443 10.0703 38.3007V38.3823H13.4369C14.214 38.3939 14.838 37.7771 14.838 37.0091ZM25.3743 38.3007V38.3823H28.7409C29.5062 38.3823 30.1302 37.7655 30.1302 37.0091V36.9275H26.7636C25.9983 36.9275 25.3743 37.5443 25.3743 38.3007ZM15.921 40.8955L15.8623 40.8375L13.4726 43.1994C12.9311 43.7346 12.9311 44.6074 13.4726 45.1426L13.5312 45.2006L15.921 42.8386C16.4624 42.3035 16.4624 41.4306 15.921 40.8955ZM24.2908 34.426L24.3495 34.4839L26.7392 32.122C27.2807 31.5868 27.2807 30.714 26.7392 30.1788L26.6805 30.1208L24.2908 32.4828C23.7493 33.018 23.7493 33.8908 24.2908 34.426ZM15.8618 33.914C16.2152 33.914 16.568 33.7744 16.8387 33.5068L16.8974 33.4488L14.5077 31.0869C14.2486 30.8309 13.8953 30.6797 13.5308 30.6797C13.1662 30.6797 12.8129 30.8193 12.5539 31.0869L12.4952 31.1448L14.8849 33.5068C15.1439 33.786 15.4973 33.914 15.8618 33.914ZM24.3612 41.3954C23.9844 41.3954 23.6433 41.535 23.3843 41.8026L23.3257 41.8605L25.7154 44.2225C25.9861 44.4901 26.3394 44.6297 26.6923 44.6297C27.0451 44.6297 27.3984 44.4901 27.6692 44.2225L27.7278 44.1645L25.3381 41.8026C25.0791 41.5466 24.7258 41.3954 24.3612 41.3954ZM19.4528 27.7241H19.3702V31.0637C19.3702 31.8201 19.9942 32.4369 20.7595 32.4369H20.8421V29.0973C20.8421 28.3409 20.218 27.7241 19.4528 27.7241ZM19.4528 42.8734H19.3702V46.213C19.3702 46.9694 19.9942 47.5862 20.7595 47.5862H20.8421V44.2466C20.8421 43.4902 20.218 42.8734 19.4528 42.8734ZM60.8559 41.989V38.4055H59.9142V42.8734H62.622V42.0006H60.8564V41.989H60.8559ZM57.654 41.2442L56.9947 39.3126L56.3355 41.2442H57.654ZM57.5831 38.4166L59.2075 42.8613H58.1832L57.9242 42.1049H56.0877L55.8287 42.8613H54.8044L56.4405 38.3934H57.5943L57.5826 38.4166H57.5831ZM53.286 39.8362C53.286 39.487 53.0387 39.2547 52.6854 39.2547H51.7672V40.4182H52.6854C53.0387 40.4298 53.286 40.1854 53.286 39.8367V39.8362ZM53.3329 41.1742L54.2747 42.8613H53.1917L52.3678 41.279H51.7554V42.8613H50.8137V38.3934H52.8149C53.6745 38.3934 54.2395 38.975 54.2395 39.8362C54.2395 40.639 53.7806 41.0578 53.3329 41.1742ZM46.6701 39.2774H47.8943V42.8609H48.836V39.2774H50.0484V38.4046H46.6579V39.2774H46.6696H46.6701ZM44.9396 41.0462C44.9396 41.6862 44.598 42.0586 43.9979 42.0586C43.3978 42.0586 43.0445 41.6862 43.0445 41.0462V38.405H42.1027V41.0814C42.1027 42.2682 42.7972 42.943 43.9979 42.943C45.1986 42.943 45.8813 42.2566 45.8813 41.0698V38.3934H44.9279V41.0462H44.9396ZM38.1942 42.8613H41.2079V42.0001H39.1359V41.023H41.1605V40.1734H39.1359V39.2658H41.2079V38.4046H38.1942V42.8609V42.8613ZM36.2164 41.2089L34.3213 38.405L34.3095 38.3934H33.3561V42.8613H34.2978V39.9526L36.2638 42.8613H37.1586V38.3934H36.2169V41.2094L36.2164 41.2089ZM61.3856 36.0547H59.1606V35.0775H61.3382V34.2163H59.1606V33.2972H61.3856V32.4359H58.148V36.9154H61.3856V36.0542V36.0547ZM55.123 36.9159H56.1356V33.3203H57.4424V32.4359H53.8045V33.3203H55.123V36.9159ZM52.4978 35.2872L51.7916 33.3556L51.0737 35.2872H52.4982H52.4978ZM52.7802 36.16H50.8025L50.52 36.928H49.4136L51.1793 32.4485H52.4152L52.4269 32.4601L54.1808 36.928H53.0744L52.7802 36.16ZM47.777 36.9164H48.7895V32.4369H47.4002L46.3172 35.1597L45.246 32.4601L45.2343 32.4485H43.8689V36.9164H44.8815V33.8328L46.1056 36.9048L46.1174 36.9164H46.5645L47.7887 33.8328V36.9164H47.777ZM41.7377 36.9164H42.7503V32.4369H41.7377V36.9164ZM41.1254 36.0436H39.2185V32.448H38.2176V36.9159H41.1254V36.0431V36.0436ZM36.5575 35.462L37.4289 35.8808L37.4171 35.904C36.9817 36.6372 36.3342 37.0091 35.4746 37.0091C34.0852 37.0091 33.0849 36.032 33.0849 34.6935C33.0849 33.3551 34.0857 32.378 35.4746 32.378C36.5575 32.378 37.1225 32.9716 37.4171 33.4715L37.4289 33.4947L36.5575 33.9135L36.5458 33.8903C36.3454 33.5063 35.9217 33.2619 35.4746 33.2619C34.6976 33.2619 34.1209 33.8787 34.1209 34.6931C34.1209 35.5074 34.6976 36.1242 35.4746 36.1242C35.9335 36.1242 36.3459 35.8798 36.5458 35.4958L36.5575 35.4611V35.462Z" fill="#F3EDE4"/>
  </g>
</svg>