<svg xmlns="http://www.w3.org/2000/svg" viewBox="0 0 50 55" fill="none">
  <path d="M31.2438 15.4486C31.2438 15.045 30.9181 14.7173 30.5184 14.7173C30.1187 14.7173 29.793 15.0457 29.793 15.4486C29.793 15.8515 30.1187 16.1799 30.5184 16.1799C30.9181 16.1799 31.2438 15.8515 31.2438 15.4486Z" fill="#F3EDE4"/>
  <path d="M37.9236 23.5815C37.9302 23.5656 37.9373 23.5505 37.9439 23.5346C37.9838 23.441 38.0224 23.3467 38.0603 23.2517C38.0675 23.2339 38.0747 23.2161 38.0819 23.1983C38.1185 23.106 38.1539 23.0124 38.1885 22.9187C38.1964 22.8983 38.2042 22.8779 38.2114 22.8574C38.2448 22.7664 38.2768 22.6747 38.3089 22.5824C38.3167 22.5594 38.3253 22.5363 38.3331 22.5132C38.3638 22.4235 38.3926 22.3332 38.4214 22.2422C38.4299 22.2164 38.4384 22.1907 38.4463 22.165C38.4737 22.0767 38.4999 21.9876 38.5261 21.8986C38.5346 21.8703 38.5431 21.8419 38.5516 21.8135C38.5764 21.7272 38.5993 21.6395 38.6229 21.5524C38.6314 21.5208 38.6399 21.4898 38.6484 21.4581C38.6706 21.373 38.6909 21.2873 38.7112 21.2016C38.719 21.1673 38.7282 21.1337 38.736 21.0994C38.7557 21.0156 38.7733 20.9312 38.791 20.8468C38.7988 20.8106 38.8074 20.7743 38.8145 20.738C38.8316 20.6556 38.8466 20.5725 38.8623 20.4894C38.8695 20.4505 38.8773 20.4123 38.8845 20.3734C38.8989 20.2922 38.912 20.2105 38.9251 20.1287C38.9316 20.0878 38.9388 20.0469 38.9454 20.0054C38.9578 19.9256 38.9683 19.8445 38.9794 19.764C38.9853 19.7212 38.9918 19.6783 38.997 19.6348C39.0069 19.5557 39.0154 19.4765 39.0245 19.3967C39.0298 19.3519 39.035 19.3064 39.0396 19.2616C39.0474 19.1824 39.054 19.1033 39.0605 19.0242C39.0644 18.978 39.069 18.9325 39.0729 18.8863C39.0788 18.8066 39.0834 18.7261 39.088 18.6457C39.0906 18.6002 39.0945 18.554 39.0965 18.5085C39.1011 18.4215 39.1037 18.3337 39.1063 18.246C39.1076 18.2065 39.1096 18.1676 39.1109 18.1287C39.1141 18.0014 39.1154 17.8741 39.1154 17.7462C39.1154 17.6282 39.1135 17.5114 39.1109 17.3941C39.1102 17.3565 39.1082 17.3189 39.1076 17.2813C39.105 17.2015 39.1024 17.1217 39.0984 17.0419C39.0965 16.9991 39.0939 16.9555 39.0919 16.9127C39.088 16.8375 39.0827 16.763 39.0775 16.6878C39.0742 16.645 39.0716 16.6014 39.0677 16.5586C39.0618 16.4801 39.0546 16.4016 39.0468 16.3238C39.0435 16.2862 39.0402 16.2493 39.0363 16.2117C39.0252 16.1009 39.0127 15.9908 38.999 15.8807C38.999 15.8767 38.9984 15.8728 38.9977 15.8688C38.9833 15.7554 38.9676 15.6426 38.9506 15.5305C38.9447 15.4929 38.9388 15.456 38.9329 15.4184C38.9212 15.3426 38.9087 15.2668 38.8957 15.1916C38.8885 15.1487 38.8806 15.1059 38.8728 15.063C38.8597 14.9924 38.8466 14.9225 38.8329 14.852C38.8244 14.8091 38.8159 14.7656 38.8067 14.7227C38.7917 14.6502 38.776 14.5777 38.7596 14.5058C38.7511 14.4669 38.7426 14.428 38.7334 14.3897C38.7112 14.2921 38.6876 14.1952 38.6628 14.0989C38.6582 14.0818 38.6543 14.0646 38.6497 14.0475C38.6235 13.9453 38.5961 13.8437 38.5679 13.7428C38.5568 13.7033 38.545 13.6644 38.5339 13.6254C38.5143 13.5569 38.494 13.4889 38.4737 13.421C38.46 13.3768 38.4463 13.3327 38.4325 13.2885C38.4129 13.2252 38.3926 13.1625 38.3717 13.0999C38.3566 13.055 38.3423 13.0109 38.3272 12.966C38.3056 12.9021 38.2834 12.8388 38.2605 12.7748C38.2454 12.7332 38.2311 12.691 38.216 12.6495C38.1872 12.571 38.1571 12.4926 38.127 12.4147C38.1107 12.3725 38.0943 12.331 38.078 12.2888C38.0453 12.207 38.0126 12.1253 37.9786 12.0441C37.9602 12.0006 37.9419 11.9578 37.9236 11.9149C37.8988 11.8569 37.8739 11.7988 37.8484 11.7415C37.8275 11.6946 37.8065 11.6485 37.7856 11.6023C37.7614 11.5489 37.7365 11.4948 37.711 11.4421C37.6888 11.3946 37.6665 11.3478 37.6436 11.301C37.6181 11.2482 37.592 11.1961 37.5665 11.144C37.5436 11.0979 37.5207 11.0517 37.4971 11.0055C37.4677 10.9482 37.4376 10.8921 37.4082 10.8354C37.3696 10.7622 37.3303 10.6897 37.2911 10.6178C37.2603 10.5618 37.2296 10.5057 37.1982 10.4503C37.1707 10.4022 37.1426 10.354 37.1144 10.3059C37.0883 10.2604 37.0615 10.2149 37.0346 10.1701C37.0052 10.1206 36.9751 10.0711 36.9444 10.0217C36.9182 9.97882 36.892 9.93662 36.8659 9.89441C36.8345 9.8443 36.8031 9.79418 36.771 9.74473C36.7449 9.7045 36.7187 9.66427 36.6925 9.62405C36.6592 9.57327 36.6258 9.5225 36.5924 9.47238C36.5689 9.43743 36.5447 9.40314 36.5205 9.36819C36.4472 9.26137 36.372 9.1552 36.2955 9.05035C36.2765 9.02463 36.2582 8.99826 36.2392 8.97254C36.2 8.91912 36.1601 8.86637 36.1195 8.81362C36.0947 8.7813 36.0704 8.74899 36.0456 8.71668C36.0057 8.66459 35.9645 8.61315 35.9239 8.56106C35.8991 8.5294 35.8742 8.49841 35.8487 8.46676C35.8068 8.41466 35.7643 8.36257 35.7218 8.31113C35.6982 8.28278 35.6747 8.25508 35.6511 8.22739C35.6054 8.17331 35.5596 8.11924 35.5138 8.06517C35.5014 8.05066 35.4883 8.03615 35.4758 8.02165C35.3071 7.82843 35.1331 7.63918 34.9545 7.4552C34.9349 7.43542 34.9159 7.41497 34.8963 7.39519C34.8439 7.34178 34.7916 7.28968 34.7386 7.23693C34.717 7.21583 34.6961 7.19472 34.6745 7.17362C34.6209 7.12087 34.5666 7.06877 34.5123 7.01668C34.494 6.99888 34.475 6.98173 34.4567 6.96393C34.3246 6.83995 34.1905 6.71862 34.0537 6.59926C33.917 6.48057 33.7784 6.36385 33.6377 6.24977C33.6253 6.23922 33.6122 6.22932 33.5998 6.21877C33.5357 6.16734 33.4709 6.11656 33.4062 6.06645C33.3891 6.05326 33.3721 6.04007 33.3551 6.02688C33.2897 5.97676 33.2237 5.92665 33.1576 5.87785C33.1445 5.86796 33.1314 5.85873 33.119 5.8495C32.9489 5.7242 32.7756 5.60287 32.6003 5.48483C32.4635 5.39317 32.3255 5.30283 32.1855 5.21513C32.1797 5.21117 32.1738 5.20787 32.1679 5.20392C32.0927 5.1571 32.0168 5.11094 31.9409 5.06544C31.9285 5.05818 31.916 5.05027 31.903 5.04302C31.8271 4.99818 31.7505 4.95334 31.674 4.90981C31.6655 4.9052 31.6577 4.90058 31.6491 4.89597C31.4392 4.77727 31.2253 4.66385 31.0094 4.55504C30.8799 4.48976 30.7491 4.42579 30.6169 4.36447C30.6156 4.36447 30.615 4.36315 30.6137 4.36315C30.5299 4.32424 30.4455 4.286 30.3612 4.24907C30.3507 4.24445 30.3402 4.23984 30.3298 4.23522C30.246 4.19829 30.1623 4.16268 30.0773 4.12707C30.0714 4.12444 30.0648 4.1218 30.0583 4.11916C29.6966 3.96881 29.3276 3.83297 28.9515 3.7123C28.9515 3.7123 28.9508 3.7123 28.9502 3.7123C28.8612 3.68394 28.7716 3.65624 28.682 3.62921C28.6709 3.62591 28.6597 3.62261 28.6493 3.61932C28.561 3.59294 28.472 3.56722 28.3831 3.54282C28.3804 3.54216 28.3778 3.5415 28.3759 3.54085C27.1422 3.19992 25.8437 3.0166 24.5021 3.0166C22.365 3.0166 20.3352 3.47952 18.5056 4.3104C18.5043 4.3104 18.503 4.31171 18.5017 4.31237C18.4814 4.32161 18.4618 4.33084 18.4415 4.34007C18.3663 4.37436 18.2917 4.40997 18.2178 4.44558C18.1877 4.46008 18.157 4.47459 18.1269 4.48976C18.0392 4.53262 17.9522 4.57614 17.8659 4.62033C17.8423 4.6322 17.8194 4.64472 17.7965 4.65659C17.7272 4.69286 17.6585 4.72913 17.5898 4.76672C17.5591 4.7832 17.529 4.79969 17.4982 4.81683C17.4145 4.86299 17.3314 4.90981 17.2484 4.95795C17.2222 4.97312 17.1967 4.98829 17.1712 5.00345C17.1071 5.04104 17.0436 5.07863 16.9802 5.11687C16.9494 5.13534 16.9187 5.15446 16.8879 5.17292C16.8081 5.22238 16.7283 5.2725 16.6492 5.32327C16.621 5.34108 16.5936 5.35954 16.5661 5.37735C16.5072 5.41625 16.4477 5.45516 16.3895 5.49472C16.3587 5.51583 16.3273 5.53627 16.2966 5.55737C16.2201 5.60946 16.1442 5.66288 16.069 5.71629C16.0395 5.73739 16.0107 5.7585 15.9813 5.7796C15.927 5.81916 15.8727 5.85873 15.8184 5.89961C15.787 5.92269 15.7563 5.94577 15.7249 5.96951C15.6523 6.02424 15.5803 6.08029 15.509 6.13635C15.4783 6.16074 15.4482 6.18514 15.4181 6.20954C15.3677 6.24977 15.318 6.28999 15.2683 6.33088C15.2369 6.35659 15.2061 6.38231 15.1747 6.40803C15.1061 6.4654 15.038 6.52343 14.9707 6.58212C14.9393 6.60981 14.9079 6.63751 14.8765 6.66521C14.8307 6.70543 14.7849 6.74632 14.7397 6.7872C14.7084 6.81555 14.677 6.84325 14.6462 6.87227C14.5814 6.93161 14.5173 6.99228 14.4539 7.05295C14.4218 7.08328 14.3898 7.11427 14.3584 7.14527C14.3165 7.18549 14.2753 7.22638 14.2341 7.26792C14.2027 7.29891 14.172 7.32991 14.1406 7.3609C14.0797 7.42223 14.0202 7.48421 13.9607 7.54686C13.928 7.58115 13.8959 7.61544 13.8639 7.64973C13.8259 7.68995 13.7886 7.73084 13.7514 7.77106C13.7206 7.80535 13.6892 7.83898 13.6585 7.87327C13.6022 7.93658 13.546 7.99988 13.4904 8.06385C13.4576 8.10144 13.4256 8.13902 13.3935 8.17661C13.3602 8.21618 13.3262 8.2564 13.2935 8.29597C13.2509 8.34674 13.2091 8.39818 13.1672 8.44961C13.126 8.50039 13.0854 8.55116 13.0449 8.6026C13.0128 8.64348 12.9808 8.68437 12.9494 8.72525C12.9193 8.76416 12.8899 8.80372 12.8598 8.84263C12.8133 8.90462 12.7669 8.9666 12.7217 9.02925C12.6897 9.07343 12.657 9.11827 12.6249 9.16245C12.5935 9.20663 12.5621 9.25081 12.5314 9.29566C12.5052 9.33324 12.4791 9.37149 12.4529 9.40974C12.4038 9.48095 12.3561 9.55283 12.3083 9.62537C12.2822 9.66493 12.2567 9.70384 12.2311 9.74341C12.2004 9.79088 12.1703 9.83836 12.1402 9.8865C12.1173 9.92277 12.0951 9.95904 12.0728 9.99531C12.0238 10.0751 11.9754 10.1555 11.9276 10.2367C11.9067 10.2723 11.8858 10.3079 11.8648 10.3435C11.8354 10.3943 11.8066 10.445 11.7778 10.4965C11.7589 10.5308 11.7399 10.5651 11.7209 10.5993C11.6725 10.6864 11.6254 10.7747 11.579 10.8631C11.562 10.8961 11.5443 10.9291 11.5273 10.962C11.4992 11.0161 11.4717 11.0702 11.4449 11.1249C11.4292 11.1566 11.4135 11.1882 11.3978 11.2205C11.3513 11.3148 11.3062 11.4098 11.2617 11.5054C11.2473 11.5364 11.2329 11.5674 11.2185 11.599C11.1924 11.6557 11.1669 11.7131 11.1414 11.7705C11.1283 11.7995 11.1158 11.8285 11.1034 11.8575C11.0596 11.9591 11.0164 12.0606 10.9752 12.1635C10.9634 12.1932 10.951 12.2222 10.9392 12.2519C10.915 12.3119 10.8915 12.3719 10.8686 12.4319C10.8588 12.4569 10.8496 12.4827 10.8398 12.5084C10.7986 12.6172 10.7587 12.726 10.7207 12.8361C10.7109 12.8645 10.7011 12.8928 10.6913 12.9212C10.6697 12.9838 10.6488 13.0465 10.6279 13.1091C10.6213 13.1296 10.6148 13.1507 10.6082 13.1711C10.5703 13.2878 10.5343 13.4052 10.499 13.5226C10.4911 13.5496 10.4826 13.5773 10.4748 13.6043C10.4558 13.6696 10.4375 13.7349 10.4192 13.8002C10.4153 13.8147 10.4113 13.8285 10.4074 13.8431C10.3734 13.969 10.3407 14.0956 10.3099 14.2222C10.3034 14.2493 10.2969 14.2756 10.2903 14.3027C10.2746 14.3699 10.2583 14.4379 10.2432 14.5051C10.2419 14.5097 10.2413 14.5137 10.2406 14.5183C10.2099 14.6561 10.1817 14.7953 10.1549 14.9344C10.1497 14.9608 10.1444 14.9872 10.1399 15.0142C10.1 15.2272 10.0653 15.4422 10.0346 15.6585C10.0306 15.6848 10.0274 15.7119 10.0234 15.7382C10.0143 15.8075 10.0051 15.8761 9.99661 15.9453C9.92466 16.5375 9.88672 17.1389 9.88672 17.7495C9.88672 23.257 12.8853 28.0576 17.3262 30.5852C17.338 30.5918 17.3497 30.5984 17.3609 30.605C17.4799 30.6723 17.5996 30.7382 17.7206 30.8022C17.735 30.8101 17.7494 30.818 17.7645 30.8253C17.8266 30.8576 17.8888 30.8899 17.9509 30.9209C17.9725 30.9314 17.9941 30.9426 18.015 30.9532C18.2112 31.0514 18.4101 31.1451 18.6116 31.2348C18.6319 31.244 18.6521 31.2526 18.6724 31.2618C18.8791 31.3521 19.0884 31.4385 19.2997 31.5196C19.3141 31.5249 19.3285 31.5308 19.3429 31.5361C19.564 31.6205 19.7877 31.699 20.014 31.7729C20.0199 31.7748 20.0252 31.7768 20.031 31.7781C20.3418 31.8784 20.6571 31.9687 20.9769 32.0485C20.9795 32.0492 20.9822 32.0498 20.9848 32.0505C22.1105 32.3307 23.2873 32.4804 24.4988 32.4804C28.4838 32.4804 32.0953 30.8721 34.7321 28.2647C34.7334 28.2634 34.7347 28.2621 34.736 28.2607C34.8178 28.1796 34.8989 28.0979 34.9787 28.0148C34.9807 28.0128 34.9833 28.0102 34.9852 28.0082C35.0657 27.9244 35.1455 27.8394 35.2246 27.7536C35.226 27.7523 35.2273 27.751 35.2286 27.749C35.3077 27.6626 35.3862 27.5756 35.4634 27.4872C35.4641 27.4859 35.4654 27.4853 35.466 27.4839C35.5439 27.3956 35.6197 27.3059 35.6956 27.2149C35.6956 27.2142 35.6969 27.2136 35.6976 27.2129C35.7728 27.1226 35.8474 27.0309 35.9207 26.9386C35.9213 26.9379 35.922 26.9366 35.9226 26.936C35.9959 26.8436 36.0678 26.7507 36.1385 26.6564C36.1391 26.655 36.1404 26.6544 36.1411 26.6531C36.2117 26.5594 36.2811 26.4645 36.3498 26.3695C36.3511 26.3682 36.3517 26.3662 36.353 26.3649C36.4211 26.2699 36.4878 26.1743 36.5539 26.078C36.5552 26.0754 36.5571 26.0734 36.5584 26.0708C36.6238 25.9752 36.6873 25.8789 36.7501 25.7813C36.7521 25.778 36.7547 25.7747 36.7566 25.7714C36.8188 25.6751 36.8796 25.5782 36.9398 25.4806C36.9424 25.476 36.945 25.4714 36.9483 25.4674C37.0072 25.3711 37.0654 25.2735 37.1223 25.1753C37.1256 25.1694 37.1295 25.1634 37.1328 25.1575C37.1884 25.0612 37.2433 24.9636 37.2969 24.866C37.3009 24.8581 37.3055 24.8509 37.31 24.8429C37.3624 24.7467 37.414 24.6497 37.4644 24.5521C37.469 24.5429 37.4742 24.5337 37.4788 24.5244C37.5285 24.4282 37.5763 24.3319 37.624 24.2343C37.6293 24.2231 37.6351 24.2119 37.641 24.2C37.6875 24.1044 37.732 24.0088 37.7764 23.9125C37.7823 23.8993 37.7889 23.8855 37.7954 23.8723C37.8386 23.778 37.8798 23.6824 37.921 23.5867L37.9236 23.5815ZM27.4509 29.209H21.7468V11.4111L19.6216 11.3913L19.6268 10.5631L19.6392 8.50896L21.3328 6.98832L22.3918 6.03743H27.4509V29.209ZM28.8795 15.4494C28.8795 14.5355 29.6167 13.7923 30.5234 13.7923C31.43 13.7923 32.1672 14.5355 32.1672 15.4494C32.1672 16.3634 31.4294 17.1059 30.5234 17.1059C29.6174 17.1059 28.8795 16.3627 28.8795 15.4494ZM30.736 20.8191H29.5455L34.6569 13.7606H35.8467L35.5733 14.1378L32.0312 19.0294L30.7353 20.8185L30.736 20.8191ZM34.808 20.8165C34.7596 20.8165 34.7125 20.8138 34.6654 20.8099C34.4017 20.7868 34.1558 20.7011 33.9419 20.5672C33.4755 20.2744 33.1641 19.7528 33.1641 19.16C33.1641 18.246 33.9013 17.5029 34.808 17.5029C35.7146 17.5029 36.4512 18.246 36.4512 19.16C36.4512 20.074 35.7139 20.8171 34.808 20.8171V20.8165Z" fill="#F3EDE4"/>
  <path d="M34.8036 18.4268C34.4032 18.4268 34.0781 18.7545 34.0781 19.1581C34.0781 19.5616 34.4039 19.8894 34.8036 19.8894C35.2032 19.8894 35.529 19.5616 35.529 19.1581C35.529 18.7545 35.2032 18.4268 34.8036 18.4268Z" fill="#F3EDE4"/>
  <path d="M7.27026 39.2863H10.1177V37.8896H7.27026V36.8583H10.4193V35.3838H5.60156V41.4538H7.27026V39.2863Z" fill="#F3EDE4"/>
  <path d="M14.2464 41.5749C16.1042 41.5749 17.4981 40.1617 17.4981 38.4189V38.4011C17.4981 36.6576 16.1212 35.2622 14.2634 35.2622C12.4057 35.2622 11.0117 36.676 11.0117 38.4189V38.436C11.0117 40.1789 12.388 41.5749 14.2464 41.5749ZM12.7242 38.4011C12.7242 37.5254 13.3346 36.7795 14.2464 36.7795C15.1583 36.7795 15.7941 37.5425 15.7941 38.4189V38.436C15.7941 39.3117 15.1831 40.0575 14.2634 40.0575C13.3437 40.0575 12.7242 39.2946 12.7242 38.4189V38.4011Z" fill="#F3EDE4"/>
  <path d="M23.7408 37.4735V37.4557C23.7408 36.8576 23.5596 36.3894 23.207 36.0426C22.8027 35.6265 22.1663 35.3838 21.2459 35.3838H18.3984V41.4538H20.0671V39.6153H20.7985L22.0112 41.4538H23.9383L22.5018 39.3377C23.2502 39.0166 23.7408 38.4013 23.7408 37.4735ZM22.0629 37.5777C22.0629 38.0202 21.7365 38.2978 21.1687 38.2978H20.0671V36.8405H21.1595C21.7188 36.8405 22.0629 37.0831 22.0629 37.5606V37.5777Z" fill="#F3EDE4"/>
  <path d="M25.9062 36.8583H27.713V41.4538H29.3817V36.8583H31.1877V35.3838H25.9062V36.8583Z" fill="#F3EDE4"/>
  <path d="M35.7713 37.6555H33.6296V35.3838H31.9609V41.4538H33.6296V39.1471H35.7713V41.4538H37.4406V35.3838H35.7713V37.6555Z" fill="#F3EDE4"/>
  <path d="M40.2025 40.0228V39.0601H43.0931V37.7333H40.2025V36.8141H43.3933V35.3838H38.5508V41.4538H43.4372V40.0228H40.2025Z" fill="#F3EDE4"/>
  <path d="M8.32297 42.6631H5.55859V49.1657H7.34635V47.3074H8.23074C9.83468 47.3074 11.0049 46.4996 11.0049 44.9665V44.948C11.0049 43.5078 9.95438 42.6631 8.32297 42.6631ZM9.21652 45.0502C9.21652 45.5613 8.82927 45.8956 8.19345 45.8956H7.34569V44.1771H8.18429C8.82927 44.1771 9.21652 44.4745 9.21652 45.0324V45.0502Z" fill="#F3EDE4"/>
  <path d="M13.5462 42.6631H11.7578V49.1657H16.6697V47.5864H13.5462V42.6631Z" fill="#F3EDE4"/>
  <path d="M19.6679 42.6172L16.9219 49.1659H18.8019L19.2624 48.0047H21.75L22.2204 49.1659H24.137L21.3909 42.6172H19.6673H19.6679ZM19.7876 46.6021L20.5157 44.7537L21.2346 46.6021H19.7876Z" fill="#F3EDE4"/>
  <path d="M29.0836 46.1007L26.4298 42.6631H24.7617V49.1657H26.5305V45.5989L29.2857 49.1657H30.8524V42.6631H29.0836V46.1007Z" fill="#F3EDE4"/>
  <path d="M33.7655 46.6018H36.8616V45.1808H33.7655V44.1963H37.184V42.6631H31.9961V49.1657H37.2305V47.6332H33.7655V46.6018Z" fill="#F3EDE4"/>
  <path d="M37.7812 44.2418H39.7162V49.1657H41.5046V44.2418H43.4395V42.6631H37.7812V44.2418Z" fill="#F3EDE4"/>
  <path d="M42.7361 48.4902C42.7361 48.3583 42.6386 48.3003 42.5019 48.3003H42.2344V48.8648H42.3927V48.6959H42.4594L42.5719 48.8648H42.7544L42.6203 48.6683C42.6903 48.6406 42.7361 48.5792 42.7361 48.4902ZM42.4928 48.57H42.392V48.4348H42.4928C42.5477 48.4348 42.5778 48.4592 42.5778 48.5021C42.5778 48.5423 42.5471 48.5693 42.4928 48.5693V48.57Z" fill="#F3EDE4"/>
  <path d="M42.4695 48.0205C42.1555 48.0205 41.9062 48.2816 41.9062 48.5916V48.5949C41.9062 48.9048 42.1522 49.1626 42.4695 49.1626C42.7867 49.1626 43.0327 48.9015 43.0327 48.5916V48.5883C43.0327 48.2783 42.7867 48.0205 42.4695 48.0205ZM42.9378 48.5916C42.9378 48.852 42.7337 49.0703 42.4695 49.0703C42.2052 49.0703 42.0004 48.8553 42.0004 48.5949V48.5916C42.0004 48.3304 42.2045 48.1128 42.4695 48.1128C42.7344 48.1128 42.9378 48.3278 42.9378 48.5883V48.5916Z" fill="#F3EDE4"/>
</svg>